<svg xmlns="http://www.w3.org/2000/svg" width="53" height="53" fill="none" viewBox="0 0 53 53">
  <rect width="53" height="53" fill="#C4171D" rx="5"/>
  <path stroke="#fff" stroke-width="3" d="M16 35.202h21M9 11.142h31.5m-27 11.775H36M12 5h1.107m0 0h23.786M13.107 5c-2.033 0-3.856 1.458-4.582 3.666a6.527 6.527 0 00-.323 2.034v34.192C8.202 46.61 7.005 48 5.528 48H4M36.893 5c2.033 0 3.856 1.458 4.582 3.666.213.65.323 1.34.323 2.034v34.192c0 1.717 1.197 3.108 2.674 3.108H46M36.893 5H38M15 29.571h20M13 40.833h23M15 18.31v20.476"/>
  <path stroke="#fff" stroke-width="4" d="M15 19v21.5M35 19v12M15 48v-6 8m6-8v8m6-8v8m11.202-1.965h-1.528C35.197 48.035 34 46.678 34 45v-4M13 17h24"/>
</svg>
